<svg xmlns="http://www.w3.org/2000/svg" xmlns:xlink="http://www.w3.org/1999/xlink" width="1021.888" height="718.164" viewBox="0 0 1021.888 718.164">
  <defs>
    <clipPath id="clip-path">
      <rect id="Rectangle_196" data-name="Rectangle 196" width="1010.593" height="276.029" fill="none"/>
    </clipPath>
  </defs>
  <g id="Group_623" data-name="Group 623" transform="matrix(0.883, -0.469, 0.469, 0.883, 0, 474.445)">
    <g id="Group_423" data-name="Group 423" clip-path="url(#clip-path)">
      <g id="Group_422" data-name="Group 422">
        <g id="Group_421" data-name="Group 421" clip-path="url(#clip-path)">
          <g id="Group_420" data-name="Group 420" style="mix-blend-mode: screen;isolation: isolate">
            <g id="Group_419" data-name="Group 419">
              <g id="Group_418" data-name="Group 418" clip-path="url(#clip-path)">
                <path id="Path_216" data-name="Path 216" d="M1.488,276.029,0,275.528c17.087-50.756,64.62-59.213,100.132-51.03,9.64,2.22,19.466,5.279,28.969,8.238,27.057,8.422,55.037,17.135,81.8,7.411,23.259-8.451,43.361-30.124,62.8-51.082,21.347-23.014,43.42-46.814,69.744-53.041,28.507-6.746,56.57,8.275,83.713,22.8,26.176,14.009,53.237,28.494,80.522,23.295,36.289-6.92,64.553-46.305,91.89-84.4C627.987,58.135,657.366,17.2,695.856,13c18.656-2.038,37.22,5.2,55.171,12.2,19.407,7.564,39.475,15.385,59.318,11.153,12.613-2.691,24.678-10.207,36.345-17.476,11.651-7.259,23.7-14.764,36.42-17.591,23.3-5.172,49.224,5.438,73.006,29.89,21.171,21.763,38.1,50.965,54.476,79.206l-1.356.787c-16.327-28.158-33.209-57.276-54.244-78.9C931.6,8.217,906.19-2.245,883.452,2.812c-12.46,2.77-24.391,10.2-35.931,17.39-11.782,7.342-23.966,14.931-36.849,17.681-20.3,4.327-40.593-3.578-60.213-11.226-17.775-6.928-36.157-14.084-54.432-12.1-37.791,4.122-66.966,44.773-95.177,84.086-27.515,38.339-55.968,77.984-92.87,85.019-27.821,5.306-55.139-9.313-81.558-23.452-26.883-14.385-54.675-29.258-82.611-22.657-25.86,6.118-47.77,29.737-68.955,52.58-19.566,21.094-39.8,42.907-63.415,51.49-27.262,9.9-55.5,1.113-82.805-7.388-9.474-2.95-19.273-6-28.854-8.206-34.872-8.033-81.541.243-98.293,50" transform="translate(0 0)" fill="#008fb6"/>
              </g>
            </g>
          </g>
        </g>
      </g>
    </g>
  </g>
</svg>
